# xmcd
#
# Track frame offsets:
#	150
#	11849
#	21914
#	38290
#	53715
#	68005
#	89790
#	102573
#	119106
#	137444
#	149937
#	165099
#	178358
#	189572
#	204123
#	216900
#	230275
#
# Disc length: 3267 seconds
#
# Revision: 1
# Processed by: cddbd v1.5.2PL0 Copyright (c) Steve Scherf et al.
# Submitted via: audiograbber 1.83.01
#
DISCID=f60cc111
DTITLE=Pernice Brothers - Live A Little (Bonus Disc)
DYEAR=1900
DGENRE=
TTITLE0=Conscience Clean (outtake)
TTITLE1=Microscopic View (outtake)
TTITLE2=PCH One (outtake)
TTITLE3=Cruelty To Animals (outtake)
TTITLE4=Automation (outtake)
TTITLE5=Zero Refills (outtake)
TTITLE6=Automation (demo)
TTITLE7=Somerville (demo)
TTITLE8=Cruelty To Animals (demo)
TTITLE9=Zero Refills (demo)
TTITLE10=Microscopic View (demo)
TTITLE11=How Can I Compare (demo)
TTITLE12=B.S. Johnson (demo)
TTITLE13=PCH One (demo)
TTITLE14=Conscience Clean (demo)
TTITLE15=Lightheaded (demo)
TTITLE16=High As A Kite (demo)
EXTD=
EXTT0=
EXTT1=
EXTT2=
EXTT3=
EXTT4=
EXTT5=
EXTT6=
EXTT7=
EXTT8=
EXTT9=
EXTT10=
EXTT11=
EXTT12=
EXTT13=
EXTT14=
EXTT15=
EXTT16=
PLAYORDER=
